<?xml version="1.0" ?>
<!DOCTYPE svg  PUBLIC '-//W3C//DTD SVG 1.1//EN'  'http://www.w3.org/Graphics/SVG/1.1/DTD/svg11.dtd'>
<!-- Uploaded to: SVG Repo, www.svgrepo.com, Generator: SVG Repo Mixer Tools -->
<svg width="800px" height="800px" viewBox="0 0 512 512" enable-background="new 0 0 512 512" id="Layer_1" version="1.1" xml:space="preserve" xmlns="http://www.w3.org/2000/svg" xmlns:xlink="http://www.w3.org/1999/xlink">
<g>
<g>
<path d="M407.788,343.649H104.212c-13.849,0-25.115-9.785-25.115-21.813v-76.776    c0-12.027,11.267-21.812,25.115-21.812h303.576c13.849,0,25.115,9.785,25.115,21.812v76.776    C432.903,333.864,421.637,343.649,407.788,343.649z M99.097,321.712c0.336,0.619,2.142,1.937,5.115,1.937h303.576    c2.974,0,4.779-1.318,5.115-1.937v-76.527c-0.337-0.619-2.143-1.937-5.115-1.937H104.212c-2.973,0-4.778,1.317-5.115,1.937    V321.712z" fill="#444B54"/>
</g>
<g>
<path d="M379.445,243.249H132.555c-5.522,0-10-4.477-10-10v-90.54c0-5.523,4.478-10,10-10h246.891    c5.522,0,10,4.477,10,10v90.54C389.445,238.772,384.968,243.249,379.445,243.249z M142.555,223.249h226.891v-70.54H142.555    V223.249z" fill="#444B54"/>
</g>
<g>
<path d="M89.097,379.291c-5.522,0-10-4.477-10-10v-47.454c0-5.523,4.478-10,10-10s10,4.477,10,10v47.454    C99.097,374.814,94.619,379.291,89.097,379.291z" fill="#444B54"/>
</g>
<g>
<path d="M422.903,379.291c-5.522,0-10-4.477-10-10v-47.454c0-5.523,4.478-10,10-10s10,4.477,10,10v47.454    C432.903,374.814,428.426,379.291,422.903,379.291z" fill="#444B54"/>
</g>
<g>
<path d="M225.559,243.249h-52.065c-5.522,0-10-4.477-10-10v-40.31c0-5.523,4.478-10,10-10h52.065    c5.522,0,10,4.477,10,10v40.31C235.559,238.772,231.081,243.249,225.559,243.249z M183.493,223.249h32.065v-20.31h-32.065V223.249    z" fill="#444B54"/>
</g>
<g>
<path d="M338.086,243.249h-52.064c-5.522,0-10-4.477-10-10v-40.31c0-5.523,4.478-10,10-10h52.064    c5.522,0,10,4.477,10,10v40.31C348.086,238.772,343.608,243.249,338.086,243.249z M296.021,223.249h32.064v-20.31h-32.064V223.249    z" fill="#444B54"/>
</g>
<g>
<path d="M422.903,321.837c0,6.524-6.768,11.813-15.115,11.813H104.212c-8.348,0-15.115-5.288-15.115-11.813    v-76.776c0-6.523,6.768-11.812,15.115-11.812h303.576c8.348,0,15.115,5.288,15.115,11.812V321.837z" fill="#8F8F99"/>
<path d="M407.788,343.649H104.212c-13.849,0-25.115-9.785-25.115-21.813v-76.776    c0-12.027,11.267-21.812,25.115-21.812h303.576c13.849,0,25.115,9.785,25.115,21.812v76.776    C432.903,333.864,421.637,343.649,407.788,343.649z M99.097,321.712c0.336,0.619,2.142,1.937,5.115,1.937h303.576    c2.974,0,4.779-1.318,5.115-1.937v-76.527c-0.337-0.619-2.143-1.937-5.115-1.937H104.212c-2.973,0-4.778,1.317-5.115,1.937    V321.712z" fill="#444B54"/>
</g>
<g>
<rect fill="#D0C144" height="90.54" width="246.891" x="132.555" y="142.709"/>
<path d="M379.445,243.249H132.555c-5.522,0-10-4.477-10-10v-90.54c0-5.523,4.478-10,10-10h246.891    c5.522,0,10,4.477,10,10v90.54C389.445,238.772,384.968,243.249,379.445,243.249z M142.555,223.249h226.891v-70.54H142.555    V223.249z" fill="#444B54"/>
</g>
<g>
<path d="M89.097,379.291c-5.522,0-10-4.477-10-10v-47.454c0-5.523,4.478-10,10-10s10,4.477,10,10v47.454    C99.097,374.814,94.619,379.291,89.097,379.291z" fill="#444B54"/>
</g>
<g>
<path d="M422.903,379.291c-5.522,0-10-4.477-10-10v-47.454c0-5.523,4.478-10,10-10s10,4.477,10,10v47.454    C432.903,374.814,428.426,379.291,422.903,379.291z" fill="#444B54"/>
</g>
<g>
<rect fill="#8F8F99" height="40.31" width="52.065" x="173.493" y="192.939"/>
<path d="M225.559,243.249h-52.065c-5.522,0-10-4.477-10-10v-40.31c0-5.523,4.478-10,10-10h52.065    c5.522,0,10,4.477,10,10v40.31C235.559,238.772,231.081,243.249,225.559,243.249z M183.493,223.249h32.065v-20.31h-32.065V223.249    z" fill="#444B54"/>
</g>
<g>
<rect fill="#8F8F99" height="40.31" width="52.064" x="286.021" y="192.939"/>
<path d="M338.086,243.249h-52.064c-5.522,0-10-4.477-10-10v-40.31c0-5.523,4.478-10,10-10h52.064    c5.522,0,10,4.477,10,10v40.31C348.086,238.772,343.608,243.249,338.086,243.249z M296.021,223.249h32.064v-20.31h-32.064V223.249    z" fill="#444B54"/>
</g>
</g>
</svg>